<svg id="bold" enable-background="new 0 0 24 24" height="512" viewBox="0 0 24 24" width="512" xmlns="http://www.w3.org/2000/svg"><path d="m22.902 14.428c-.002-.002-.004-.004-.006-.006l-1.406-1.292c.043-.38.064-.759.064-1.13s-.021-.75-.064-1.13l1.412-1.298c.585-.55.72-1.424.322-2.135l-1.658-2.868c-.394-.699-1.244-1.031-2.024-.788l-1.822.575c-.613-.463-1.268-.843-1.954-1.134l-.422-1.873c-.178-.794-.869-1.349-1.681-1.349h-3.326c-.812 0-1.503.555-1.681 1.349l-.422 1.873c-.686.291-1.34.671-1.954 1.134l-1.825-.576c-.779-.244-1.629.09-2.017.781l-1.667 2.886c-.393.701-.258 1.575.333 2.131l1.406 1.292c-.043.38-.065.759-.065 1.13s.021.75.064 1.13l-1.412 1.298c-.585.55-.72 1.424-.322 2.135l1.658 2.868c.393.699 1.242 1.029 2.024.788l1.822-.575c.613.463 1.268.843 1.954 1.134l.422 1.873c.179.794.87 1.349 1.682 1.349h3.326c.812 0 1.503-.555 1.681-1.349l.422-1.874c.687-.291 1.341-.671 1.954-1.134l1.825.576c.778.242 1.628-.091 2.017-.781l1.668-2.885c.392-.701.257-1.575-.328-2.125zm-8.862 2.463c0 .61-.5 1.11-1.12 1.11h-1.84c-.54 0-1.12-.4-1.12-1.29v-.54h4.08zm.81-2.96c-.42.34-.69.78-.78 1.24h-4.13c-.07-.45-.32-.87-.73-1.19-1.11-.87-1.74-2.18-1.71-3.6.05-2.38 2.04-4.35 4.43-4.38 1.21-.03 2.37.44 3.24 1.3.86.84 1.33 1.97 1.33 3.17 0 1.35-.599 2.61-1.65 3.46z"/></svg>